<svg width="62" height="62" viewBox="0 0 62 62" fill="none" xmlns="http://www.w3.org/2000/svg">
<g id="Facebook logo" clip-path="url(#clip0_355_515)">
<path id="Vector" d="M52.7 0H9.3C4.16375 0 0 4.16375 0 9.3V52.7C0 57.8363 4.16375 62 9.3 62H52.7C57.8363 62 62 57.8363 62 52.7V9.3C62 4.16375 57.8363 0 52.7 0Z" fill="#0286C5"/>
<path id="Vector_2" d="M34.7539 55.2188V19.0117C34.7539 16.4688 35.4805 14.7734 38.9922 14.7734H43.5938V7.14453C42.7461 7.02344 40.082 6.78125 36.9336 6.78125C30.3945 6.78125 25.9141 10.7773 25.9141 18.1641V55.2188M43.2305 24.4609H18.4062V33.1797H42.1406" fill="#FEFEFE"/>
</g>
<defs>
<clipPath id="clip0_355_515">
<rect width="62" height="62" fill="white"/>
</clipPath>
</defs>
</svg>
