<svg width="160" height="129" viewBox="0 0 160 129" fill="none" xmlns="http://www.w3.org/2000/svg">
<g id="Group 48095791">
<g id="Group">
<path id="Vector" fill-rule="evenodd" clip-rule="evenodd" d="M79.7064 41.9092L103.617 28.1059L79.7064 14.3027L55.7954 28.1059L79.7064 41.9092ZM79.7064 56.2099L128.384 28.1059L79.7064 0.00195312L31.0283 28.1059L79.7064 56.2099Z" fill="white"/>
<path id="Vector_2" fill-rule="evenodd" clip-rule="evenodd" d="M82.7061 61.4106V103.328L95.088 96.1788V96.1691V79.4812V68.5594L118.999 54.7529V77.4525V82.3626V82.3723L131.384 75.2236V33.3066L82.7061 61.4106Z" fill="white"/>
<path id="Vector_3" fill-rule="evenodd" clip-rule="evenodd" d="M76.7015 61.4106L28.0234 33.3066V75.2139L40.4086 82.3626V54.7529L64.3196 68.5594V96.1691L76.7015 103.318V61.4106Z" fill="white"/>
</g>
<g id="GRUPO BRUZZA">
<path id="Vector_4" d="M144.428 127.942L150.585 112.88L153.226 112.879L159.383 127.932L155.608 127.934L154.616 125.274L149.026 125.278L147.997 127.94L144.428 127.942ZM150.076 122.596L153.604 122.593L151.868 117.974L150.076 122.596Z" fill="white"/>
<path id="Vector_5" d="M132.109 127.95L132.108 125.949L138.598 115.838L132.245 115.842L132.243 112.892L143.216 112.885L143.218 114.721L136.769 124.997L143.349 124.993L143.351 127.942L132.109 127.95Z" fill="white"/>
<path id="Vector_6" d="M119.459 127.96L119.457 125.959L125.948 115.847L119.595 115.852L119.593 112.902L130.566 112.895L130.567 114.73L124.118 125.007L130.698 125.002L130.7 127.952L119.459 127.96Z" fill="white"/>
<path id="Vector_7" d="M111.579 128.171C107.474 128.174 105.183 125.577 105.18 122.008L105.174 112.912L108.804 112.91L108.81 122.006C108.812 123.759 109.782 124.975 111.556 124.974C113.288 124.973 114.278 123.755 114.276 122.002L114.27 112.906L117.756 112.903L117.762 122C117.765 125.589 115.353 128.169 111.579 128.171Z" fill="white"/>
<path id="Vector_8" d="M91.5076 127.979L91.4971 112.922L98.1595 112.917C101.315 112.915 103.338 114.77 103.34 117.555C103.342 119.803 102.064 121.371 100.043 121.992L101.075 123.682C101.715 124.754 102.314 125.167 103.057 125.166C103.325 125.166 103.572 125.104 103.572 125.104L103.574 127.991C103.574 127.991 102.997 128.157 102.378 128.157C100.398 128.159 99.1801 127.169 98.0234 124.901L96.619 122.283L94.9689 122.284L94.9728 127.977L91.5076 127.979ZM94.9671 119.747L97.6692 119.745C99.0512 119.744 99.9788 118.96 99.9779 117.681C99.9771 116.567 99.1927 115.66 97.7282 115.661L94.9642 115.663L94.9671 119.747Z" fill="white"/>
<path id="Vector_9" d="M78.3943 127.989L78.3838 112.932L84.0561 112.928C87.3563 112.925 88.9042 114.224 88.9059 116.658C88.9072 118.452 87.9592 119.649 86.4951 120.166C88.3723 120.474 89.7963 121.525 89.7978 123.691C89.7997 126.393 87.8206 127.982 84.2316 127.985L78.3943 127.989ZM81.8577 125.367L84.0648 125.366C85.4468 125.365 86.3332 124.704 86.3324 123.466C86.3314 122.126 85.2997 121.59 83.9796 121.591L81.8551 121.592L81.8577 125.367ZM81.8534 119.097L83.5035 119.095C84.8648 119.094 85.6894 118.372 85.6886 117.196C85.6878 116.082 84.9654 115.485 83.501 115.486L81.8508 115.487L81.8534 119.097Z" fill="white"/>
<path id="Vector_10" d="M64.9928 128.205C60.4756 128.208 57.2556 124.951 57.2525 120.475C57.2493 115.999 60.5061 112.738 64.982 112.735C69.4993 112.732 72.7193 116.009 72.7224 120.485C72.7255 124.982 69.4894 128.202 64.9928 128.205ZM64.9905 124.884C67.3832 124.882 69.0939 123.045 69.0921 120.488C69.0903 117.909 67.377 116.054 64.9844 116.056C62.5917 116.057 60.881 117.915 60.8827 120.473C60.8845 123.051 62.5978 124.886 64.9905 124.884Z" fill="white"/>
<path id="Vector_11" d="M44.2957 128.012L44.2852 112.955L50.1637 112.951C53.5052 112.949 55.6724 114.927 55.6745 117.877C55.6766 120.971 53.3471 122.85 49.9644 122.852L47.7573 122.853L47.7609 128.01L44.2957 128.012ZM47.7555 120.275L49.7151 120.274C51.2414 120.273 52.3134 119.426 52.3124 117.982C52.3115 116.745 51.4239 115.755 49.7532 115.756L47.7524 115.758L47.7555 120.275Z" fill="white"/>
<path id="Vector_12" d="M35.9615 128.224C31.8568 128.227 29.5655 125.63 29.563 122.061L29.5566 112.965L33.1869 112.962L33.1933 122.059C33.1945 123.812 34.1648 125.028 35.9387 125.027C37.6713 125.026 38.6605 123.808 38.6593 122.055L38.653 112.958L42.1388 112.956L42.1452 122.052C42.1477 125.641 39.7362 128.221 35.9615 128.224Z" fill="white"/>
<path id="Vector_13" d="M15.8904 128.032L15.8799 112.975L22.5423 112.97C25.6981 112.968 27.7208 114.823 27.7228 117.607C27.7243 119.856 26.4466 121.424 24.4256 122.044L25.4581 123.735C26.0983 124.807 26.6968 125.219 27.4393 125.219C27.7075 125.219 27.9549 125.156 27.9549 125.156L27.957 128.044C27.957 128.044 27.3795 128.21 26.7607 128.21C24.7806 128.211 23.5629 127.222 22.4062 124.954L21.0018 122.336L19.3517 122.337L19.3557 128.03L15.8904 128.032ZM19.3499 119.8L22.052 119.798C23.434 119.797 24.3616 119.012 24.3607 117.733C24.36 116.62 23.5755 115.713 22.111 115.714L19.3471 115.716L19.3499 119.8Z" fill="white"/>
<path id="Vector_14" d="M7.91078 128.244C3.22855 128.247 0.00852484 124.99 0.00540002 120.514C0.00227521 116.038 3.23837 112.777 7.94123 112.774C10.4577 112.772 12.1701 113.41 13.4497 114.399L11.8222 117.288C10.9141 116.629 9.67619 116.114 8.14983 116.115C5.38587 116.117 3.65453 117.975 3.65636 120.594C3.6582 123.234 5.37159 125.213 7.90866 125.212C8.87811 125.211 9.7237 125.066 10.4867 124.777L10.4851 122.446L7.4942 122.448L7.49233 119.766L13.8866 119.783L13.8912 126.466C12.2832 127.581 10.2003 128.242 7.91078 128.244Z" fill="white"/>
</g>
</g>
</svg>
