<svg width="75" height="60" viewBox="0 0 75 60" fill="none" xmlns="http://www.w3.org/2000/svg">
<g id="Group 48095792">
<g id="Group 48095793">
<g id="Group">
<path id="Vector" fill-rule="evenodd" clip-rule="evenodd" d="M37.3465 19.6359L48.5502 13.1683L37.3465 6.7007L26.1428 13.1683L37.3465 19.6359ZM37.3465 26.3366L60.1549 13.1683L37.3465 0L14.5381 13.1683L37.3465 26.3366Z" fill="#023E6E"/>
<path id="Vector_2" fill-rule="evenodd" clip-rule="evenodd" d="M38.7529 28.7738V48.4142L44.5546 45.0646V45.0601V37.2408V32.1234L55.7582 25.6543V36.2903V38.591V38.5955L61.5613 35.2459V15.6055L38.7529 28.7738Z" fill="#0286C5"/>
<path id="Vector_3" fill-rule="evenodd" clip-rule="evenodd" d="M35.9393 28.7738L13.1309 15.6055V35.2414L18.934 38.591V25.6543L30.1377 32.1234V45.0601L35.9393 48.4097V28.7738Z" fill="#47ADD8"/>
</g>
<g id="GRUPO BRUZZA">
<path id="Vector_4" d="M67.6729 59.856L70.5577 52.7988L71.7948 52.7979L74.6798 59.8511L72.9112 59.8524L72.4464 58.6059L69.8273 58.6078L69.3449 59.8549L67.6729 59.856ZM70.3193 57.351L71.9719 57.3499L71.1586 55.1855L70.3193 57.351Z" fill="#023E6E"/>
<path id="Vector_5" d="M61.9004 59.8599L61.8998 58.9225L64.9409 54.1846L61.9641 54.1867L61.9632 52.8046L67.1048 52.8011L67.1054 53.6612L64.0837 58.4763L67.1667 58.4742L67.1677 59.8563L61.9004 59.8599Z" fill="#023E6E"/>
<path id="Vector_6" d="M55.9737 59.8638L55.973 58.9264L59.0141 54.1885L56.0374 54.1906L56.0364 52.8085L61.178 52.805L61.1786 53.6651L58.1569 58.4803L61.24 58.4781L61.2409 59.8602L55.9737 59.8638Z" fill="#023E6E"/>
<path id="Vector_7" d="M52.2813 59.9633C50.358 59.9646 49.2844 58.7476 49.2832 57.0756L49.2803 52.8135L50.9813 52.8123L50.9842 57.0744C50.9848 57.8959 51.4395 58.4658 52.2706 58.4652C53.0825 58.4647 53.546 57.8941 53.5454 57.0726L53.5424 52.8105L55.1757 52.8094L55.1787 57.0715C55.1799 58.7532 54.05 59.962 52.2813 59.9633Z" fill="#023E6E"/>
<path id="Vector_8" d="M42.876 59.8736L42.8711 52.8184L45.9928 52.8162C47.4715 52.8151 48.4192 53.6843 48.4202 54.989C48.4209 56.0425 47.8222 56.7774 46.8753 57.068L47.359 57.8602C47.659 58.3626 47.9394 58.5557 48.2873 58.5554C48.413 58.5553 48.5289 58.5263 48.5289 58.5263L48.5299 59.8793C48.5299 59.8793 48.2593 59.9568 47.9694 59.957C47.0416 59.9577 46.471 59.4942 45.9291 58.4314L45.271 57.2045L44.4978 57.205L44.4997 59.8725L42.876 59.8736ZM44.497 56.0162L45.7631 56.0154C46.4106 56.0149 46.8453 55.6473 46.8448 55.0481C46.8445 54.5262 46.4769 54.1012 45.7907 54.1017L44.4957 54.1026L44.497 56.0162Z" fill="#023E6E"/>
<path id="Vector_9" d="M36.7325 59.8775L36.7275 52.8223L39.3853 52.8204C40.9317 52.8193 41.657 53.4277 41.6578 54.5681C41.6584 55.409 41.2142 55.9698 40.5281 56.2119C41.4077 56.3563 42.0749 56.8487 42.0756 57.8635C42.0765 59.1296 41.1492 59.8744 39.4676 59.8756L36.7325 59.8775ZM38.3553 58.649L39.3894 58.6482C40.0369 58.6478 40.4523 58.3382 40.4519 57.7583C40.4515 57.1301 39.9681 56.8792 39.3495 56.8796L38.354 56.8803L38.3553 58.649ZM38.3532 55.7109L39.1264 55.7103C39.7643 55.7099 40.1506 55.3714 40.1502 54.8205C40.1499 54.2986 39.8114 54.0185 39.1252 54.019L38.352 54.0196L38.3532 55.7109Z" fill="#023E6E"/>
<path id="Vector_10" d="M30.4526 59.9784C28.336 59.9799 26.8272 58.4539 26.8258 56.3567C26.8243 54.2594 28.3503 52.7314 30.4475 52.7299C32.5641 52.7284 34.0729 54.2641 34.0743 56.3613C34.0758 58.4682 32.5595 59.977 30.4526 59.9784ZM30.4515 58.4224C31.5726 58.4216 32.3742 57.5609 32.3733 56.3625C32.3725 55.1544 31.5697 54.2851 30.4486 54.2859C29.3275 54.2867 28.5259 55.1571 28.5268 56.3555C28.5276 57.5636 29.3304 58.4232 30.4515 58.4224Z" fill="#023E6E"/>
<path id="Vector_11" d="M20.7549 59.8882L20.75 52.833L23.5044 52.8311C25.0701 52.83 26.0856 53.7571 26.0865 55.1391C26.0875 56.5889 24.996 57.4691 23.411 57.4702L22.3769 57.4709L22.3786 59.8871L20.7549 59.8882ZM22.3761 56.2628L23.2942 56.2622C24.0094 56.2617 24.5117 55.8651 24.5112 55.1886C24.5108 54.6087 24.0949 54.1451 23.3121 54.1456L22.3746 54.1463L22.3761 56.2628Z" fill="#023E6E"/>
<path id="Vector_12" d="M16.8497 59.9877C14.9264 59.989 13.8528 58.772 13.8516 57.1L13.8486 52.8379L15.5496 52.8367L15.5526 57.0988C15.5532 57.9203 16.0078 58.4902 16.839 58.4897C17.6508 58.4891 18.1143 57.9186 18.1137 57.0971L18.1108 52.8349L19.7441 52.8338L19.7471 57.0959C19.7483 58.7776 18.6183 59.9865 16.8497 59.9877Z" fill="#023E6E"/>
<path id="Vector_13" d="M7.44536 59.898L7.44043 52.8428L10.5621 52.8406C12.0408 52.8396 12.9886 53.7087 12.9895 55.0135C12.9902 56.0669 12.3915 56.8019 11.4446 57.0925L11.9284 57.8846C12.2283 58.387 12.5087 58.5801 12.8567 58.5798C12.9823 58.5797 13.0983 58.5507 13.0983 58.5507L13.0992 59.9037C13.0992 59.9037 12.8287 59.9812 12.5387 59.9814C11.6109 59.9821 11.0404 59.5186 10.4984 58.4558L9.84034 57.2289L9.06716 57.2294L9.06903 59.8969L7.44536 59.898ZM9.06633 56.0407L10.3324 56.0398C10.9799 56.0393 11.4146 55.6718 11.4142 55.0725C11.4138 54.5507 11.0463 54.1257 10.3601 54.1261L9.065 54.127L9.06633 56.0407Z" fill="#023E6E"/>
<path id="Vector_14" d="M3.70665 59.9969C1.51276 59.9985 0.00399437 58.4725 0.00253022 56.3752C0.00106606 54.278 1.51736 52.7499 3.72092 52.7484C4.90001 52.7476 5.70239 53.0466 6.30193 53.5101L5.53936 54.8637C5.1139 54.5547 4.53384 54.3135 3.81866 54.314C2.52358 54.3149 1.71235 55.1853 1.71321 56.4127C1.71408 57.6498 2.51689 58.577 3.70565 58.5762C4.1599 58.5759 4.5561 58.508 4.9136 58.3724L4.91284 57.2803L3.51146 57.2813L3.51058 56.0249L6.50665 56.0324L6.50883 59.1638C5.75535 59.6862 4.77943 59.9962 3.70665 59.9969Z" fill="#023E6E"/>
</g>
</g>
</g>
</svg>
