<svg width="62" height="62" viewBox="0 0 62 62" fill="none" xmlns="http://www.w3.org/2000/svg">
<g id="instagram logo" clip-path="url(#clip0_355_449)">
<path id="Vector" d="M31.0121 0.012085C18.0672 0.012085 14.289 0.0241943 13.5504 0.0847412C10.8863 0.30271 9.23943 0.726538 7.43513 1.62263C6.05466 2.31287 4.95271 3.09998 3.87498 4.22615C1.91326 6.27263 0.714429 8.77927 0.290601 11.7703C0.0847412 13.2234 0.0241943 13.514 0.012085 20.925V31C0.012085 43.9328 0.0241943 47.7109 0.0847412 48.4496C0.30271 51.0289 0.702319 52.6636 1.56208 54.4437C3.19685 57.8465 6.33318 60.4015 10.0265 61.3582C11.3101 61.6851 12.7148 61.8668 14.5312 61.9515C15.2941 61.9879 23.1289 62.0121 30.9515 62.0121C38.7742 62.0121 46.609 62 47.3597 61.9636C49.4547 61.8668 50.6777 61.6972 52.0218 61.3582C55.7394 60.4015 58.8152 57.8828 60.4863 54.4316C61.334 52.7 61.7578 51.0047 61.9515 48.5586C61.9879 48.0258 62.0121 39.5129 62.0121 31.0121C62.0121 22.5113 61.9879 14.0105 61.9515 13.4777C61.7578 10.9832 61.334 9.31209 60.4621 7.54412C59.7476 6.09099 58.9605 5.01326 57.8101 3.9113C55.7636 1.94958 53.257 0.762866 50.266 0.326929C48.8129 0.121069 48.5343 0.0605225 41.1234 0.0484131H31.0121V0.012085Z" fill="#023E6E"/>
<path id="Vector_2" d="M31 8.11328C24.7879 8.11328 24.0008 8.1375 21.5668 8.24648C19.1328 8.35547 17.4617 8.74297 16.0086 9.31211C14.507 9.89336 13.2234 10.6805 11.952 11.952C10.6805 13.2234 9.89336 14.507 9.31211 16.0086C8.74297 17.4617 8.35547 19.1328 8.24648 21.5668C8.1375 24.0129 8.11328 24.7879 8.11328 31C8.11328 37.2121 8.1375 37.9992 8.24648 40.4332C8.35547 42.8672 8.74297 44.5383 9.31211 45.9914C9.89336 47.493 10.6805 48.7766 11.952 50.048C13.2234 51.3195 14.4949 52.1066 16.0086 52.6879C17.4617 53.257 19.1328 53.6445 21.5668 53.7535C24.0129 53.8625 24.7879 53.8867 31 53.8867C37.2121 53.8867 37.9992 53.8625 40.4332 53.7535C42.8672 53.6445 44.5383 53.257 45.9914 52.6879C47.493 52.1066 48.7766 51.3195 50.048 50.048C51.3195 48.7766 52.1066 47.493 52.6879 45.9914C53.2449 44.5383 53.6324 42.8672 53.7535 40.4332C53.8625 37.9871 53.8867 37.2121 53.8867 31C53.8867 24.7879 53.8625 24.0008 53.7535 21.5668C53.6445 19.1328 53.257 17.4617 52.6879 16.0086C52.1066 14.507 51.3195 13.2234 50.048 11.952C48.7766 10.6805 47.5051 9.89336 45.9914 9.31211C44.5383 8.74297 42.8672 8.35547 40.4332 8.24648C37.9871 8.1375 37.2121 8.11328 31 8.11328ZM28.9414 12.2426H31C37.1152 12.2426 37.8297 12.2668 40.2516 12.3758C42.4797 12.4727 43.6906 12.848 44.502 13.1629C45.5676 13.5746 46.3305 14.0711 47.1297 14.8703C47.9289 15.6695 48.4254 16.4324 48.8371 17.498C49.152 18.3094 49.5273 19.5203 49.6242 21.7484C49.7332 24.1582 49.7574 24.8848 49.7574 31C49.7574 37.1152 49.7332 37.8297 49.6242 40.2516C49.5273 42.4797 49.152 43.6906 48.8371 44.502C48.4254 45.5676 47.9289 46.3305 47.1297 47.1297C46.3305 47.9289 45.5676 48.4254 44.502 48.8371C43.6906 49.152 42.4797 49.5273 40.2516 49.6242C37.8418 49.7332 37.1152 49.7574 31 49.7574C24.8848 49.7574 24.1582 49.7332 21.7484 49.6242C19.5203 49.5152 18.3094 49.152 17.498 48.8371C16.4324 48.4254 15.6695 47.9289 14.8703 47.1297C14.0711 46.3305 13.5746 45.5676 13.1629 44.502C12.848 43.6906 12.4727 42.4797 12.3758 40.2516C12.2668 37.8418 12.2426 37.1152 12.2426 31C12.2426 24.8848 12.2668 24.1703 12.3758 21.7484C12.4727 19.5203 12.848 18.3094 13.1629 17.498C13.5746 16.4324 14.0711 15.6695 14.8703 14.8703C15.6695 14.0711 16.4324 13.5746 17.498 13.1629C18.3094 12.848 19.5203 12.4727 21.7484 12.3758C23.8555 12.2668 24.6789 12.2426 28.9414 12.2426ZM43.2184 16.0449C41.7047 16.0449 40.4695 17.268 40.4695 18.7937C40.4695 20.3074 41.7047 21.5426 43.2184 21.5426C44.732 21.5426 45.9672 20.3074 45.9672 18.7937C45.9672 17.2801 44.732 16.0328 43.2184 16.0449ZM31 19.2539C24.5094 19.2539 19.2418 24.5215 19.2418 31.0121C19.2418 37.5027 24.5094 42.7582 31 42.7582C37.4906 42.7582 42.7461 37.5027 42.7461 31.0121C42.7461 24.5215 37.4906 19.2539 31 19.2539ZM31 23.3711C35.2141 23.3711 38.6289 26.7859 38.6289 31C38.6289 35.2141 35.2141 38.6289 31 38.6289C26.7859 38.6289 23.3711 35.2141 23.3711 31C23.3711 26.7859 26.7859 23.3711 31 23.3711Z" fill="#FEFEFE"/>
</g>
<defs>
<clipPath id="clip0_355_449">
<rect width="62" height="62" fill="white"/>
</clipPath>
</defs>
</svg>
