<svg width="62" height="62" viewBox="0 0 62 62" fill="none" xmlns="http://www.w3.org/2000/svg">
<g id="linkedin-icon logo" clip-path="url(#clip0_355_458)">
<g id="Group">
<path id="Vector" d="M52.8266 52.8276H43.6401V38.4409C43.6401 35.0102 43.5789 30.5939 38.8622 30.5939C34.0776 30.5939 33.3455 34.3317 33.3455 38.1911V52.8266H24.1591V23.2417H32.9781V27.2848H33.1015C34.8998 24.2101 38.2434 22.3737 41.8028 22.5058C51.1137 22.5058 52.8304 28.6303 52.8304 36.5978L52.8266 52.8276ZM13.7937 19.1977C10.8494 19.1982 8.46223 16.8118 8.4617 13.8675C8.46118 10.9232 10.8475 8.53594 13.7918 8.53541C16.736 8.53488 19.1232 10.9213 19.1237 13.8656C19.124 15.2795 18.5626 16.6356 17.563 17.6356C16.5634 18.6355 15.2076 19.1974 13.7937 19.1977ZM18.3869 52.8276H9.19088V23.2417H18.3869V52.8276ZM57.4064 0.00425685H4.57468C2.07775 -0.0239217 0.0301075 1.97622 -0.000366211 4.47319V57.5252C0.0290642 60.0234 2.07654 62.0255 4.57468 61.9993H57.4064C59.9095 62.0303 61.965 60.0283 61.9996 57.5252V4.46936C61.9639 1.96746 59.9083 -0.0325679 57.4064 2.65876e-05" fill="#023E6E"/>
</g>
</g>
<defs>
<clipPath id="clip0_355_458">
<rect width="62" height="62" fill="white"/>
</clipPath>
</defs>
</svg>
