<svg width="62" height="62" viewBox="0 0 62 62" fill="none" xmlns="http://www.w3.org/2000/svg">
<g id="WhatsApp logo" clip-path="url(#clip0_355_466)">
<path id="Vector" d="M52.7 0H9.3C4.16375 0 0 4.16375 0 9.3V52.7C0 57.8362 4.16375 62 9.3 62H52.7C57.8362 62 62 57.8362 62 52.7V9.3C62 4.16375 57.8362 0 52.7 0Z" fill="#023E6E"/>
<path id="Vector_2" d="M36.9821 33.1797C36.6188 32.9375 36.2555 32.8164 35.8922 33.3008L34.4391 35.2383C34.0758 35.4805 33.8336 35.6016 33.3492 35.3594C31.5328 34.3906 28.9899 33.3008 26.8102 29.668C26.6891 29.1836 26.9313 28.9414 27.1735 28.6992L28.2633 27.0039C28.5055 26.7617 28.3844 26.5195 28.2633 26.2773L26.8102 22.7656C26.4469 21.7969 26.0836 21.918 25.7203 21.918H24.7516C24.5094 21.918 24.025 22.0391 23.5406 22.5234C20.8766 25.1875 21.9664 28.9414 23.9039 31.3633C24.2672 31.8477 26.6891 36.207 31.8961 38.5078C35.7711 40.2031 36.6188 39.9609 37.7086 39.7188C39.0406 39.5977 40.3727 38.5078 40.9781 37.418C41.0992 37.0547 41.7047 35.4805 41.2203 35.2383M31.6539 46.6211C26.6891 46.6211 22.9352 43.957 22.9352 43.957L17.0016 45.5312L18.4547 39.7188C18.4547 39.7188 16.0328 35.9648 16.0328 31.2422C16.0328 22.5234 23.1774 15.2578 32.0172 15.2578C40.2516 15.2578 47.275 21.6758 47.275 30.6367C47.275 39.3555 40.2516 46.5 31.6539 46.6211ZM12.4 50.1328L22.4508 47.3477C25.3617 48.8379 28.6059 49.5571 31.8739 49.4368C35.1418 49.3164 38.3244 48.3605 41.1178 46.6602C43.9111 44.9599 46.2221 42.5719 47.83 39.7244C49.4379 36.8768 50.2891 33.6647 50.3024 30.3945C50.3024 19.9805 42.068 11.625 31.6539 11.625C28.3114 11.6336 25.0294 12.5176 22.1349 14.1892C19.2403 15.8607 16.8342 18.2614 15.1561 21.1522C13.4779 24.0429 12.5864 27.3229 12.5703 30.6654C12.5542 34.0079 13.414 37.2963 15.0641 40.2031" fill="#FEFEFE"/>
</g>
<defs>
<clipPath id="clip0_355_466">
<rect width="62" height="62" fill="white"/>
</clipPath>
</defs>
</svg>
