<svg width="28" height="28" viewBox="0 0 28 28" fill="none" xmlns="http://www.w3.org/2000/svg">
<g id="whatsapp logo" clip-path="url(#clip0_341_140)">
<path id="Vector" d="M17.8164 15.4117C18.4907 15.6275 19.074 15.897 19.6165 16.2283L19.5804 16.2073C20.1975 16.4815 20.7307 16.8023 21.2172 17.1792L21.1997 17.1663C21.223 17.2375 21.237 17.318 21.237 17.4032C21.237 17.416 21.237 17.4277 21.2359 17.4405V17.4393C21.2184 17.9398 21.1075 18.41 20.9197 18.8382L20.929 18.8137C20.6595 19.3538 20.2104 19.7703 19.6609 19.992L19.6445 19.9978C19.109 20.2813 18.4767 20.4563 17.8059 20.4773H17.7989C16.5155 20.307 15.3559 19.9127 14.3129 19.3317L14.363 19.3573C13.1707 18.8113 12.1522 18.0938 11.2877 17.2235L11.2865 17.2223C10.3252 16.2225 9.44436 15.1282 8.66386 13.9627L8.60902 13.8763C7.86702 12.9092 7.39452 11.6993 7.32569 10.3822L7.32452 10.367V10.2223C7.36186 9.08483 7.87052 8.07217 8.65919 7.3675L8.66269 7.364C8.90419 7.12367 9.23552 6.97317 9.60186 6.96617H9.60302C9.72086 6.96967 9.83402 6.979 9.94369 6.99533L9.92852 6.993C10.03 7.00817 10.1479 7.0175 10.2692 7.01983H10.2727C10.2949 7.0175 10.3194 7.01633 10.345 7.01633C10.4967 7.01633 10.6379 7.06183 10.7557 7.13883L10.7534 7.13767C10.8782 7.27533 10.9739 7.44217 11.031 7.62533L11.0334 7.63467C11.1298 7.87578 11.3289 8.40622 11.6307 9.226C11.7882 9.59233 11.9422 10.0438 12.0659 10.5082L12.0822 10.5817C11.9935 11.0028 11.7695 11.361 11.4604 11.6188L11.4569 11.6212C11.0407 12.0614 10.8327 12.3414 10.8327 12.4612C10.8374 12.5638 10.8724 12.6572 10.9272 12.7342L10.926 12.733C11.3985 13.7002 12.018 14.5215 12.7647 15.2052L12.7705 15.211C13.558 15.9215 14.4575 16.5317 15.4329 17.0077L15.5017 17.038C15.6149 17.1115 15.7502 17.1582 15.8972 17.1652H15.8995C16.0807 17.1652 16.4066 16.8727 16.8772 16.2878C17.3477 15.7029 17.6604 15.4105 17.8152 15.4105L17.8164 15.4117ZM14.1449 24.997H14.1705C15.7537 24.997 17.2587 24.6645 18.6202 24.0648L18.549 24.0928C21.2977 22.9332 23.4409 20.79 24.5725 18.1148L24.6005 18.0413C25.1722 16.7428 25.5047 15.2285 25.5047 13.6372C25.5047 12.0458 25.1722 10.5315 24.5725 9.16067L24.6005 9.233C23.4409 6.48433 21.2977 4.34117 18.6225 3.2095L18.549 3.1815C17.2505 2.60983 15.7362 2.27733 14.1449 2.27733C12.5535 2.27733 11.0392 2.60983 9.66836 3.2095L9.74069 3.1815C6.99202 4.34117 4.84886 6.48433 3.71719 9.1595L3.68919 9.233C3.11752 10.5362 2.78502 12.0552 2.78502 13.6512C2.78502 16.149 3.59936 18.4578 4.97719 20.3245L4.95502 20.2942L3.52586 24.5093L7.90319 23.1163C9.64152 24.2947 11.7847 24.997 14.0924 24.997H14.1472H14.1449ZM14.1449 0H14.1834C16.0827 0 17.8887 0.399 19.5209 1.11883L19.4357 1.085C22.7315 2.4815 25.3017 5.05167 26.6644 8.25883L26.6982 8.3475C27.3842 9.90733 27.7832 11.7262 27.7832 13.6383C27.7832 15.5505 27.3842 17.3693 26.6644 19.0155L26.6982 18.9292C25.3017 22.225 22.7315 24.7952 19.5244 26.1578L19.4357 26.1917C17.8875 26.8777 16.0815 27.2767 14.1822 27.2767C14.1694 27.2767 14.1554 27.2767 14.1425 27.2767H14.1449C14.1262 27.2767 14.1052 27.2767 14.083 27.2767C11.6809 27.2767 9.42569 26.6455 7.47502 25.5407L7.54152 25.5757L-0.000976562 28L2.45952 20.6745C1.23336 18.6748 0.506523 16.254 0.506523 13.6628C0.506523 11.7425 0.905523 9.9155 1.62536 8.26L1.59152 8.3475C2.98802 5.05167 5.55819 2.4815 8.76536 1.11883L8.85402 1.085C10.4022 0.399 12.2082 0 14.1075 0H14.146L14.1449 0Z" fill="black"/>
</g>
<defs>
<clipPath id="clip0_341_140">
<rect width="28" height="28" fill="white"/>
</clipPath>
</defs>
</svg>
